<?xml version="1.0" encoding="UTF-8" standalone="no"?>
<!DOCTYPE svg PUBLIC "-//W3C//DTD SVG 1.1//EN" "http://www.w3.org/Graphics/SVG/1.1/DTD/svg11.dtd">
<svg version="1.1" xmlns="http://www.w3.org/2000/svg" xmlns:xlink="http://www.w3.org/1999/xlink" preserveAspectRatio="xMidYMid meet" viewBox="0 0 640 640" width="640" height="640"><defs><path d="M161.25 335.08C161.24 333.73 161.77 332.43 162.71 331.47C178.07 315.65 300.95 189.13 316.31 173.31C318.13 171.14 321.35 170.85 323.53 172.66C325.7 174.47 325.99 177.7 324.18 179.87C324.01 180.07 323.83 180.26 323.64 180.43C308.28 196.24 185.4 322.77 170.04 338.59C169.09 339.58 167.78 340.15 166.4 340.17C163.57 340.19 161.27 337.91 161.25 335.08Z" id="b2PV1eXYfj"></path><path d="M469.91 338.64C454.55 322.82 331.67 196.3 316.31 180.48C314.19 178.61 313.99 175.37 315.87 173.25C317.74 171.13 320.97 170.93 323.09 172.81C323.29 172.98 323.47 173.16 323.64 173.36C339 189.18 461.88 315.7 477.24 331.52C479.21 333.54 479.18 336.78 477.16 338.76C476.2 339.71 474.9 340.23 473.55 340.22C472.21 340.18 470.88 339.63 469.91 338.64Z" id="bhJkQCs4p"></path></defs><g><g><g><use xlink:href="#b2PV1eXYfj" opacity="1" fill="#000000" fill-opacity="1"></use><g><use xlink:href="#b2PV1eXYfj" opacity="1" fill-opacity="0" stroke="#000000" stroke-width="1" stroke-opacity="0"></use></g></g><g><use xlink:href="#bhJkQCs4p" opacity="1" fill="#000000" fill-opacity="1"></use><g><use xlink:href="#bhJkQCs4p" opacity="1" fill-opacity="0" stroke="#000000" stroke-width="1" stroke-opacity="0"></use></g></g></g></g></svg>