<?xml version="1.0" encoding="UTF-8" standalone="no"?>
<!DOCTYPE svg PUBLIC "-//W3C//DTD SVG 1.1//EN" "http://www.w3.org/Graphics/SVG/1.1/DTD/svg11.dtd">
<svg width="100%" height="100%" viewBox="0 0 95 79" version="1.1" xmlns="http://www.w3.org/2000/svg" xmlns:xlink="http://www.w3.org/1999/xlink" xml:space="preserve" xmlns:serif="http://www.serif.com/" style="fill-rule:evenodd;clip-rule:evenodd;stroke-linejoin:round;stroke-miterlimit:2;">
    <g transform="matrix(1,0,0,1,-2.5,-10.6)">
        <g>
            <path d="M54.4,33.9L57.1,33.9C58.2,33.9 59.2,33 59.2,31.8L59.2,18.8C59.2,17.7 58.3,16.7 57.1,16.7L54.4,16.7C53.3,16.7 52.3,17.6 52.3,18.8L52.3,31.8C52.4,33 53.3,33.9 54.4,33.9Z" style="fill-rule:nonzero;"/>
            <path d="M18.2,66.7L18.2,64C18.2,62.9 17.3,61.9 16.1,61.9L4.6,61.9C3.5,61.9 2.5,62.8 2.5,64L2.5,66.7C2.5,67.8 3.4,68.8 4.6,68.8L16.2,68.8C17.3,68.8 18.2,67.9 18.2,66.7Z" style="fill-rule:nonzero;"/>
            <path d="M26.4,72.2L14.8,72.2C13.7,72.2 12.7,73.1 12.7,74.3L12.7,77C12.7,78.1 13.6,79.1 14.8,79.1L26.4,79.1C27.5,79.1 28.5,78.2 28.5,77L28.5,74.3C28.5,73.1 27.6,72.2 26.4,72.2Z" style="fill-rule:nonzero;"/>
            <path d="M37.4,46.2L37.4,43.5C37.4,42.4 36.5,41.4 35.3,41.4L23.7,41.4C22.6,41.4 21.6,42.3 21.6,43.5L21.6,46.2C21.6,47.3 22.5,48.3 23.7,48.3L35.3,48.3C36.4,48.3 37.4,47.4 37.4,46.2Z" style="fill-rule:nonzero;"/>
            <path d="M26.4,51.7L23.7,51.7C22.6,51.7 21.6,52.6 21.6,53.8L21.6,66.8C21.6,67.9 22.5,68.9 23.7,68.9L26.4,68.9C27.5,68.9 28.5,68 28.5,66.8L28.5,53.8C28.5,52.6 27.6,51.7 26.4,51.7Z" style="fill-rule:nonzero;"/>
            <path d="M33.9,58.5L45.5,58.5C46.6,58.5 47.6,57.6 47.6,56.4L47.6,53.7C47.6,52.6 46.7,51.6 45.5,51.6L33.9,51.6C32.8,51.6 31.8,52.5 31.8,53.7L31.8,56.4C31.9,57.6 32.8,58.5 33.9,58.5Z" style="fill-rule:nonzero;"/>
            <path d="M44.2,68.8L55.8,68.8C56.9,68.8 57.9,67.9 57.9,66.7L57.9,64C57.9,62.9 57,61.9 55.8,61.9L44.2,61.9C43.1,61.9 42.1,62.8 42.1,64L42.1,66.7C42.1,67.9 43.1,68.8 44.2,68.8Z" style="fill-rule:nonzero;"/>
            <path d="M66.1,72.2L54.4,72.2C53.3,72.2 52.3,73.1 52.3,74.3L52.3,77C52.3,78.1 53.2,79.1 54.4,79.1L66,79.1C67.1,79.1 68.1,78.2 68.1,77L68.1,74.3C68.1,73.1 67.2,72.2 66.1,72.2Z" style="fill-rule:nonzero;"/>
            <path d="M36.7,62L34,62C32.9,62 31.9,62.9 31.9,64.1L31.9,77.1C31.9,78.2 32.8,79.2 34,79.2L36.7,79.2C37.8,79.2 38.8,78.3 38.8,77.1L38.8,64C38.7,62.9 37.8,62 36.7,62Z" style="fill-rule:nonzero;"/>
            <path d="M46.9,72.2L44.2,72.2C43.1,72.2 42.1,73.1 42.1,74.3L42.1,87.3C42.1,88.4 43,89.4 44.2,89.4L46.9,89.4C48,89.4 49,88.5 49,87.3L49,74.3C49,73.1 48.1,72.2 46.9,72.2Z" style="fill-rule:nonzero;"/>
            <path d="M32.6,38L35.3,38C36.4,38 37.4,37.1 37.4,35.9L37.4,23C37.4,21.9 36.5,20.9 35.3,20.9L32.6,20.9C31.5,20.9 30.5,21.8 30.5,23L30.5,36C30.5,37.1 31.4,38 32.6,38Z" style="fill-rule:nonzero;"/>
            <path d="M42.8,48.3L45.5,48.3C46.6,48.3 47.6,47.4 47.6,46.2L47.6,33.2C47.6,32.1 46.7,31.1 45.5,31.1L42.8,31.1C41.7,31.1 40.7,32 40.7,33.2L40.7,46.2C40.8,47.4 41.7,48.3 42.8,48.3Z" style="fill-rule:nonzero;"/>
            <path d="M53.1,58.5L55.8,58.5C56.9,58.5 57.9,57.6 57.9,56.4L57.9,43.4C57.9,42.3 57,41.3 55.8,41.3L53.1,41.3C52,41.3 51,42.2 51,43.4L51,56.4C51,57.6 51.9,58.5 53.1,58.5Z" style="fill-rule:nonzero;"/>
            <path d="M66.1,51.7L63.4,51.7C62.3,51.7 61.3,52.6 61.3,53.8L61.3,66.8C61.3,67.9 62.2,68.9 63.4,68.9L66.1,68.9C67.2,68.9 68.2,68 68.2,66.8L68.2,53.8C68.1,52.6 67.2,51.7 66.1,51.7Z" style="fill-rule:nonzero;"/>
            <path d="M22.3,27.8L25,27.8C26.1,27.8 27.1,26.9 27.1,25.7L27.1,12.7C27.1,11.6 26.2,10.6 25,10.6L22.3,10.6C21.2,10.6 20.2,11.5 20.2,12.7L20.2,25.7C20.3,26.9 21.2,27.8 22.3,27.8Z" style="fill-rule:nonzero;"/>
            <path d="M95.4,62L83.8,62C82.7,62 81.7,62.9 81.7,64.1L81.7,66.8C81.7,67.9 82.6,68.9 83.8,68.9L95.4,68.9C96.5,68.9 97.5,68 97.5,66.8L97.5,64C97.5,62.9 96.6,62 95.4,62Z" style="fill-rule:nonzero;"/>
            <path d="M63.3,48.3L74.9,48.3C76,48.3 77,47.4 77,46.2L77,43.5C77,42.4 76.1,41.4 74.9,41.4L63.3,41.4C62.2,41.4 61.2,42.3 61.2,43.5L61.2,46.2C61.3,47.4 62.2,48.3 63.3,48.3Z" style="fill-rule:nonzero;"/>
            <path d="M87.2,56.5L87.2,53.8C87.2,52.7 86.3,51.7 85.1,51.7L73.6,51.7C72.5,51.7 71.5,52.6 71.5,53.8L71.5,56.5C71.5,57.6 72.4,58.6 73.6,58.6L85.2,58.6C86.3,58.5 87.2,57.6 87.2,56.5Z" style="fill-rule:nonzero;"/>
        </g>
    </g>
</svg>
